<?xml version="1.0" encoding="iso-8859-1"?>
<!-- Generator: Adobe Illustrator 19.0.0, SVG Export Plug-In . SVG Version: 6.00 Build 0)  -->
<svg version="1.1" id="Layer_1" xmlns="http://www.w3.org/2000/svg" xmlns:xlink="http://www.w3.org/1999/xlink" x="0px" y="0px"
	 viewBox="0 0 512 512" style="enable-background:new 0 0 512 512;" xml:space="preserve">
<g>
	<g>
		<g>
			<path d="M437.632,468.197l-21.791-12.045v-18.657c0-1.027-0.389-2.068-1.201-2.867c-0.794-0.791-1.825-1.19-2.877-1.19h-55.529
				c-1.042,0-2.094,0.399-2.877,1.19c-0.791,0.801-1.19,1.841-1.19,2.867v18.657l-21.791,12.045c-0.215,0.115-0.399,0.287-0.54,0.52
				c-0.131,0.23-0.195,0.481-0.195,0.722v2.657c0,0.358,0.141,0.719,0.41,0.996c0.287,0.284,0.65,0.425,1.014,0.425h105.877
				c0.366,0,0.727-0.141,1.009-0.425c0.276-0.274,0.417-0.637,0.417-0.996v-2.657c0-0.243-0.074-0.492-0.205-0.722
				C438.031,468.484,437.855,468.312,437.632,468.197z"/>
			<path d="M509.171,258.828c-1.889-1.884-4.347-2.834-6.822-2.834h-236.7c-2.476,0-4.933,0.95-6.822,2.834
				c-1.879,1.889-2.821,4.355-2.821,6.822v153.219c0,2.476,0.94,4.943,2.821,6.822c1.889,1.889,4.347,2.829,6.822,2.829h236.7
				c2.476,0,4.933-0.94,6.822-2.829c1.889-1.879,2.829-4.347,2.829-6.822V265.65C512,263.185,511.06,260.719,509.171,258.828z
				 M383.997,424.434c-2.365,0-4.273-1.912-4.273-4.268c0-2.36,1.907-4.268,4.273-4.268c2.345,0,4.273,1.907,4.273,4.268
				C388.27,422.522,386.342,424.434,383.997,424.434z M495.304,411.831h-222.61V272.695h222.61V411.831z"/>
			<path d="M181.617,250.674l-21.78-12.04v-18.655c0-1.037-0.389-2.071-1.19-2.872c-0.791-0.791-1.833-1.19-2.877-1.19h-55.542
				c-1.042,0-2.076,0.399-2.877,1.19c-0.801,0.801-1.183,1.833-1.183,2.872v18.655l-21.798,12.04
				c-0.212,0.12-0.399,0.297-0.53,0.522c-0.141,0.233-0.205,0.484-0.205,0.73v2.65c0,0.369,0.141,0.727,0.42,1.006
				c0.279,0.274,0.643,0.415,1.014,0.415h105.866c0.364,0,0.727-0.138,1.006-0.415c0.279-0.279,0.42-0.637,0.42-1.006v-2.65
				c0-0.246-0.064-0.497-0.195-0.73C182.034,250.973,181.839,250.797,181.617,250.674z"/>
			<path d="M246.351,38.483H9.654c-2.476,0-4.933,0.945-6.822,2.829C0.94,43.196,0,45.667,0,48.134v153.219
				c0,2.476,0.94,4.943,2.829,6.83c1.889,1.879,4.347,2.826,6.822,2.826h236.7c2.476,0,4.943-0.945,6.822-2.826
				c1.889-1.889,2.829-4.357,2.829-6.83V48.134c0.003-2.468-0.937-4.938-2.829-6.822C251.295,39.428,248.827,38.483,246.351,38.483z
				 M128.003,206.924c-2.365,0-4.273-1.912-4.273-4.273c0-2.355,1.907-4.268,4.273-4.268c2.345,0,4.262,1.912,4.262,4.268
				C132.265,205.011,130.348,206.924,128.003,206.924z M239.299,194.315L239.299,194.315h-222.6V55.182h222.6V194.315z"/>
			<path d="M396.285,217.594c6.83,0,12.378-5.537,12.378-12.37c0-6.83-5.548-12.37-12.378-12.37c-6.843,0-12.37,5.54-12.37,12.37
				C383.916,212.056,389.443,217.594,396.285,217.594z"/>
			<path d="M396.285,128.091c6.83,0,12.378-5.54,12.378-12.372c0-6.84-5.548-12.372-12.378-12.372
				c-6.843,0-12.37,5.532-12.37,12.372C383.916,122.551,389.443,128.091,396.285,128.091z"/>
			<path d="M396.285,172.842c6.83,0,12.378-5.54,12.378-12.375c0-6.828-5.548-12.37-12.378-12.372
				c-6.843,0-12.37,5.545-12.37,12.372C383.916,167.302,389.443,172.842,396.285,172.842z"/>
			<path d="M306.77,128.091c6.84,0,12.37-5.54,12.37-12.372c0-6.84-5.53-12.372-12.37-12.372c-6.843,0-12.37,5.532-12.37,12.372
				C294.4,122.551,299.927,128.091,306.77,128.091z"/>
			<path d="M351.531,128.091c6.822,0,12.37-5.54,12.37-12.372c0-6.84-5.548-12.372-12.37-12.372c-6.833,0-12.38,5.532-12.38,12.372
				C339.151,122.551,344.699,128.091,351.531,128.091z"/>
			<path d="M115.717,294.394c-6.833,0-12.37,5.547-12.37,12.38c0,6.838,5.537,12.37,12.37,12.37c6.84,0,12.378-5.532,12.378-12.37
				C128.095,299.941,122.557,294.394,115.717,294.394z"/>
			<path d="M115.717,383.909c-6.833,0-12.37,5.537-12.37,12.37c0,6.84,5.537,12.37,12.37,12.37c6.84,0,12.378-5.53,12.378-12.37
				C128.095,389.446,122.557,383.909,115.717,383.909z"/>
			<path d="M115.717,339.155c-6.833,0-12.37,5.537-12.37,12.37c0,6.833,5.537,12.375,12.37,12.375
				c6.84,0,12.378-5.542,12.378-12.375C128.095,344.692,122.557,339.155,115.717,339.155z"/>
			<path d="M205.23,383.909c-6.833,0-12.37,5.537-12.37,12.37c0,6.84,5.537,12.37,12.37,12.37c6.833,0,12.37-5.53,12.37-12.37
				C217.6,389.446,212.063,383.909,205.23,383.909z"/>
			<path d="M160.479,383.909c-6.843,0-12.372,5.537-12.37,12.37c0,6.84,5.53,12.37,12.37,12.37c6.833,0,12.37-5.53,12.37-12.37
				C172.849,389.446,167.311,383.909,160.479,383.909z"/>
		</g>
	</g>
</g>
<g>
</g>
<g>
</g>
<g>
</g>
<g>
</g>
<g>
</g>
<g>
</g>
<g>
</g>
<g>
</g>
<g>
</g>
<g>
</g>
<g>
</g>
<g>
</g>
<g>
</g>
<g>
</g>
<g>
</g>
</svg>
